<svg t="1730127282993" class="icon" viewBox="0 0 1024 1024" version="1.1" xmlns="http://www.w3.org/2000/svg" p-id="14888" width="200" height="200"><path d="M224 672h44.8v198.4h-44.8zM492.8 524.8h44.8v345.6h-44.8z" fill="#5B8FD9" p-id="14889"></path><path d="M160 102.4h697.6v448H160z" fill="#5284C1" p-id="14890"></path><path d="M204.8 128h620.8v396.8H204.8zM230.4 672h576v51.2h-576z" fill="#5B8FD9" p-id="14891"></path><path d="M768 678.4h44.8v198.4H768z" fill="#5B8FD9" p-id="14892"></path><path d="M236.8 896m-76.8 0a76.8 76.8 0 1 0 153.6 0 76.8 76.8 0 1 0-153.6 0Z" fill="#68D279" p-id="14893"></path><path d="M512 896m-76.8 0a76.8 76.8 0 1 0 153.6 0 76.8 76.8 0 1 0-153.6 0Z" fill="#FE6D68" p-id="14894"></path><path d="M787.2 896m-76.8 0a76.8 76.8 0 1 0 153.6 0 76.8 76.8 0 1 0-153.6 0Z" fill="#F9D65D" p-id="14895"></path><path d="M345.6 448h-57.6c-12.8 0-25.6-12.8-25.6-25.6s12.8-25.6 25.6-25.6h44.8c6.4-6.4 19.2-25.6 25.6-44.8 12.8-19.2 25.6-19.2 32-19.2 6.4 0 25.6 0 51.2 44.8 12.8-19.2 38.4-64 64-140.8 12.8-38.4 38.4-57.6 64-57.6 57.6 0 108.8 128 128 198.4h38.4c12.8 0 25.6 12.8 25.6 25.6s-12.8 25.6-25.6 25.6h-57.6c-12.8 0-19.2-6.4-25.6-19.2-19.2-89.6-64-179.2-83.2-185.6 0 0-6.4 6.4-12.8 25.6-57.6 153.6-96 185.6-102.4 192-6.4 6.4-12.8 6.4-19.2 6.4-6.4 0-12.8-6.4-12.8-12.8-12.8-19.2-19.2-32-25.6-44.8-12.8 32-32 51.2-32 51.2-6.4 0-12.8 6.4-19.2 6.4z" fill="#C7DAF2" p-id="14896"></path></svg>